<mxfile host="app.diagrams.net" modified="2024-07-14T09:34:32.912Z" agent="Mozilla/5.0 (X11; Linux x86_64; rv:128.0) Gecko/20100101 Firefox/128.0" etag="3zvanohPDN1zUOyDT5n7" version="24.6.5" type="device">
  <diagram name="Page-1" id="Y7fDS_C0gfKzPyL6VnSx">
    <mxGraphModel dx="1669" dy="451" grid="1" gridSize="10" guides="1" tooltips="1" connect="1" arrows="1" fold="1" page="1" pageScale="1" pageWidth="850" pageHeight="1100" math="0" shadow="0">
      <root>
        <mxCell id="0" />
        <mxCell id="1" parent="0" />
        <mxCell id="KxN5zA2LxY_8TZOwQZdD-16" value="" style="group" vertex="1" connectable="0" parent="1">
          <mxGeometry width="219" height="140" as="geometry" />
        </mxCell>
        <mxCell id="KxN5zA2LxY_8TZOwQZdD-2" value="&lt;div&gt;Module 1&lt;/div&gt;" style="swimlane;whiteSpace=wrap;html=1;" vertex="1" parent="KxN5zA2LxY_8TZOwQZdD-16">
          <mxGeometry x="80" width="130" height="140" as="geometry" />
        </mxCell>
        <mxCell id="KxN5zA2LxY_8TZOwQZdD-4" value="" style="endArrow=classic;html=1;rounded=0;" edge="1" parent="KxN5zA2LxY_8TZOwQZdD-16">
          <mxGeometry width="50" height="50" relative="1" as="geometry">
            <mxPoint y="40" as="sourcePoint" />
            <mxPoint x="80" y="40" as="targetPoint" />
          </mxGeometry>
        </mxCell>
        <mxCell id="KxN5zA2LxY_8TZOwQZdD-5" value="&lt;div&gt;s_valid&lt;/div&gt;" style="text;html=1;align=center;verticalAlign=middle;resizable=0;points=[];autosize=1;strokeColor=none;fillColor=none;" vertex="1" parent="KxN5zA2LxY_8TZOwQZdD-16">
          <mxGeometry x="71" y="25" width="60" height="30" as="geometry" />
        </mxCell>
        <mxCell id="KxN5zA2LxY_8TZOwQZdD-6" value="" style="endArrow=classic;html=1;rounded=0;" edge="1" parent="KxN5zA2LxY_8TZOwQZdD-16">
          <mxGeometry width="50" height="50" relative="1" as="geometry">
            <mxPoint x="80" y="80" as="sourcePoint" />
            <mxPoint y="80" as="targetPoint" />
          </mxGeometry>
        </mxCell>
        <mxCell id="KxN5zA2LxY_8TZOwQZdD-7" value="&lt;div&gt;s_ready&lt;/div&gt;" style="text;html=1;align=center;verticalAlign=middle;resizable=0;points=[];autosize=1;strokeColor=none;fillColor=none;" vertex="1" parent="KxN5zA2LxY_8TZOwQZdD-16">
          <mxGeometry x="68" y="65" width="70" height="30" as="geometry" />
        </mxCell>
        <mxCell id="KxN5zA2LxY_8TZOwQZdD-8" value="" style="endArrow=classic;html=1;rounded=0;startArrow=none;startFill=0;jumpStyle=none;flowAnimation=0;shadow=0;" edge="1" parent="KxN5zA2LxY_8TZOwQZdD-16">
          <mxGeometry width="50" height="50" relative="1" as="geometry">
            <mxPoint y="120" as="sourcePoint" />
            <mxPoint x="80" y="120" as="targetPoint" />
          </mxGeometry>
        </mxCell>
        <mxCell id="KxN5zA2LxY_8TZOwQZdD-15" value="/" style="edgeLabel;html=1;align=center;verticalAlign=middle;resizable=0;points=[];labelBackgroundColor=none;" vertex="1" connectable="0" parent="KxN5zA2LxY_8TZOwQZdD-8">
          <mxGeometry x="0.0202" relative="1" as="geometry">
            <mxPoint as="offset" />
          </mxGeometry>
        </mxCell>
        <mxCell id="KxN5zA2LxY_8TZOwQZdD-9" value="&lt;div&gt;s_data&lt;/div&gt;" style="text;html=1;align=center;verticalAlign=middle;resizable=0;points=[];autosize=1;strokeColor=none;fillColor=none;" vertex="1" parent="KxN5zA2LxY_8TZOwQZdD-16">
          <mxGeometry x="70" y="105" width="60" height="30" as="geometry" />
        </mxCell>
        <mxCell id="KxN5zA2LxY_8TZOwQZdD-10" value="&lt;div&gt;m_valid&lt;/div&gt;" style="text;html=1;align=center;verticalAlign=middle;resizable=0;points=[];autosize=1;strokeColor=none;fillColor=none;" vertex="1" parent="KxN5zA2LxY_8TZOwQZdD-16">
          <mxGeometry x="157" y="25" width="60" height="30" as="geometry" />
        </mxCell>
        <mxCell id="KxN5zA2LxY_8TZOwQZdD-11" value="&lt;div&gt;m_ready&lt;/div&gt;" style="text;html=1;align=center;verticalAlign=middle;resizable=0;points=[];autosize=1;strokeColor=none;fillColor=none;" vertex="1" parent="KxN5zA2LxY_8TZOwQZdD-16">
          <mxGeometry x="149" y="65" width="70" height="30" as="geometry" />
        </mxCell>
        <mxCell id="KxN5zA2LxY_8TZOwQZdD-12" value="&lt;div&gt;m_data&lt;/div&gt;" style="text;html=1;align=center;verticalAlign=middle;resizable=0;points=[];autosize=1;strokeColor=none;fillColor=none;" vertex="1" parent="KxN5zA2LxY_8TZOwQZdD-16">
          <mxGeometry x="157" y="105" width="60" height="30" as="geometry" />
        </mxCell>
        <mxCell id="KxN5zA2LxY_8TZOwQZdD-17" value="" style="group" vertex="1" connectable="0" parent="1">
          <mxGeometry x="210" width="219" height="140" as="geometry" />
        </mxCell>
        <mxCell id="KxN5zA2LxY_8TZOwQZdD-18" value="&lt;div&gt;Module 2&lt;br&gt;&lt;/div&gt;" style="swimlane;whiteSpace=wrap;html=1;" vertex="1" parent="KxN5zA2LxY_8TZOwQZdD-17">
          <mxGeometry x="80" width="130" height="140" as="geometry" />
        </mxCell>
        <mxCell id="KxN5zA2LxY_8TZOwQZdD-19" value="" style="endArrow=classic;html=1;rounded=0;" edge="1" parent="KxN5zA2LxY_8TZOwQZdD-17">
          <mxGeometry width="50" height="50" relative="1" as="geometry">
            <mxPoint y="40" as="sourcePoint" />
            <mxPoint x="80" y="40" as="targetPoint" />
          </mxGeometry>
        </mxCell>
        <mxCell id="KxN5zA2LxY_8TZOwQZdD-20" value="&lt;div&gt;s_valid&lt;/div&gt;" style="text;html=1;align=center;verticalAlign=middle;resizable=0;points=[];autosize=1;strokeColor=none;fillColor=none;" vertex="1" parent="KxN5zA2LxY_8TZOwQZdD-17">
          <mxGeometry x="71" y="25" width="60" height="30" as="geometry" />
        </mxCell>
        <mxCell id="KxN5zA2LxY_8TZOwQZdD-21" value="" style="endArrow=classic;html=1;rounded=0;" edge="1" parent="KxN5zA2LxY_8TZOwQZdD-17">
          <mxGeometry width="50" height="50" relative="1" as="geometry">
            <mxPoint x="80" y="80" as="sourcePoint" />
            <mxPoint y="80" as="targetPoint" />
          </mxGeometry>
        </mxCell>
        <mxCell id="KxN5zA2LxY_8TZOwQZdD-22" value="&lt;div&gt;s_ready&lt;/div&gt;" style="text;html=1;align=center;verticalAlign=middle;resizable=0;points=[];autosize=1;strokeColor=none;fillColor=none;" vertex="1" parent="KxN5zA2LxY_8TZOwQZdD-17">
          <mxGeometry x="68" y="65" width="70" height="30" as="geometry" />
        </mxCell>
        <mxCell id="KxN5zA2LxY_8TZOwQZdD-23" value="" style="endArrow=classic;html=1;rounded=0;startArrow=none;startFill=0;jumpStyle=none;flowAnimation=0;shadow=0;" edge="1" parent="KxN5zA2LxY_8TZOwQZdD-17">
          <mxGeometry width="50" height="50" relative="1" as="geometry">
            <mxPoint y="120" as="sourcePoint" />
            <mxPoint x="80" y="120" as="targetPoint" />
          </mxGeometry>
        </mxCell>
        <mxCell id="KxN5zA2LxY_8TZOwQZdD-24" value="/" style="edgeLabel;html=1;align=center;verticalAlign=middle;resizable=0;points=[];labelBackgroundColor=none;" vertex="1" connectable="0" parent="KxN5zA2LxY_8TZOwQZdD-23">
          <mxGeometry x="0.0202" relative="1" as="geometry">
            <mxPoint as="offset" />
          </mxGeometry>
        </mxCell>
        <mxCell id="KxN5zA2LxY_8TZOwQZdD-25" value="&lt;div&gt;s_data&lt;/div&gt;" style="text;html=1;align=center;verticalAlign=middle;resizable=0;points=[];autosize=1;strokeColor=none;fillColor=none;" vertex="1" parent="KxN5zA2LxY_8TZOwQZdD-17">
          <mxGeometry x="70" y="105" width="60" height="30" as="geometry" />
        </mxCell>
        <mxCell id="KxN5zA2LxY_8TZOwQZdD-26" value="&lt;div&gt;m_valid&lt;/div&gt;" style="text;html=1;align=center;verticalAlign=middle;resizable=0;points=[];autosize=1;strokeColor=none;fillColor=none;" vertex="1" parent="KxN5zA2LxY_8TZOwQZdD-17">
          <mxGeometry x="157" y="25" width="60" height="30" as="geometry" />
        </mxCell>
        <mxCell id="KxN5zA2LxY_8TZOwQZdD-27" value="&lt;div&gt;m_ready&lt;/div&gt;" style="text;html=1;align=center;verticalAlign=middle;resizable=0;points=[];autosize=1;strokeColor=none;fillColor=none;" vertex="1" parent="KxN5zA2LxY_8TZOwQZdD-17">
          <mxGeometry x="149" y="65" width="70" height="30" as="geometry" />
        </mxCell>
        <mxCell id="KxN5zA2LxY_8TZOwQZdD-28" value="&lt;div&gt;m_data&lt;/div&gt;" style="text;html=1;align=center;verticalAlign=middle;resizable=0;points=[];autosize=1;strokeColor=none;fillColor=none;" vertex="1" parent="KxN5zA2LxY_8TZOwQZdD-17">
          <mxGeometry x="157" y="105" width="60" height="30" as="geometry" />
        </mxCell>
        <mxCell id="KxN5zA2LxY_8TZOwQZdD-29" value="" style="endArrow=classic;html=1;rounded=0;" edge="1" parent="1">
          <mxGeometry width="50" height="50" relative="1" as="geometry">
            <mxPoint x="420" y="40" as="sourcePoint" />
            <mxPoint x="500" y="40" as="targetPoint" />
          </mxGeometry>
        </mxCell>
        <mxCell id="KxN5zA2LxY_8TZOwQZdD-30" value="" style="endArrow=classic;html=1;rounded=0;" edge="1" parent="1">
          <mxGeometry width="50" height="50" relative="1" as="geometry">
            <mxPoint x="500" y="80" as="sourcePoint" />
            <mxPoint x="420" y="80" as="targetPoint" />
          </mxGeometry>
        </mxCell>
        <mxCell id="KxN5zA2LxY_8TZOwQZdD-31" value="" style="endArrow=classic;html=1;rounded=0;startArrow=none;startFill=0;jumpStyle=none;flowAnimation=0;shadow=0;" edge="1" parent="1">
          <mxGeometry width="50" height="50" relative="1" as="geometry">
            <mxPoint x="420" y="120" as="sourcePoint" />
            <mxPoint x="500" y="120" as="targetPoint" />
          </mxGeometry>
        </mxCell>
        <mxCell id="KxN5zA2LxY_8TZOwQZdD-32" value="/" style="edgeLabel;html=1;align=center;verticalAlign=middle;resizable=0;points=[];labelBackgroundColor=none;" vertex="1" connectable="0" parent="KxN5zA2LxY_8TZOwQZdD-31">
          <mxGeometry x="0.0202" relative="1" as="geometry">
            <mxPoint as="offset" />
          </mxGeometry>
        </mxCell>
      </root>
    </mxGraphModel>
  </diagram>
</mxfile>
